# xmcd
#
# Track frame offsets:
#	150
#	16535
#	32145
#	53432
#	69982
#	93322
#	116500
#	132955
#	150812
#	167997
#	184370
#	199202
#	222075
#	238387
#	253060
#
# Disc length: 3604
#
# Revision: 1
# Processed by: cddbd v1.5.1PL0 Copyright (c) Steve Scherf et al.
# Submitted via: ExactAudioCopy v0.95a4
# Normalized: r0:DSETVAR1
#
DISCID=c60e120f
DTITLE=Various Artist - The Real R&B Collection CD2
DYEAR=1997
DGENRE=R&B
TTITLE0=Coolio - Too Hot
TTITLE1=SWV - Right Here
TTITLE2=Beverly Knight - Flavour Of The Old School
TTITLE3=Father MC - Everything's Gonna Be Alright
TTITLE4=Faith Evans - Ain't Nobody
TTITLE5=Wreckx-N-Effect - Rump Shaker
TTITLE6=Harmony Innocent's - Don't Tell Me That It's Over
TTITLE7=Truce - Treat U Right
TTITLE8=A Few Good Men - Let's Take A Dip
TTITLE9=Jade - Don't Walk Away
TTITLE10=Creamy - The Finest
TTITLE11=Booty Snatchers - Trip In Peace
TTITLE12=Two Outta Millions - Supremacy
TTITLE13=Empress - This Is What You Want
TTITLE14=Roger - Remember (Da Happy Daz)
EXTD=
EXTT0=
EXTT1=
EXTT2=
EXTT3=
EXTT4=
EXTT5=
EXTT6=
EXTT7=
EXTT8=
EXTT9=
EXTT10=
EXTT11=
EXTT12=
EXTT13=
EXTT14=
PLAYORDER=
